PathFileType        4      (X/Y/Z)      C:\Users\pc\Desktop\IMUTRC\Sujet_07\Sujet_07_velo_60.trc         
DataRate	CameraRate	NumFrames	NumMarkers	Units	OrigDataRate	OrigDataStartFrame	OrigNumFrames
60.0	60.0	4	64	mm	60.0	819	935
Frame#	Time	pHipOrigin			pRightASI			pLeftASI			pRightCSI			pLeftCSI			pRightIschialTub			pLeftIschialTub			pSacrum			pL5SpinalProcess			pL3SpinalProcess			pT12SpinalProcess			pIJ			pT4SpinalProcess			pT8SpinalProcess			pPX			pC7SpinalProcess			pTopOfHead			pRightAuricularis			pLeftAuricularis			pBackOfHead			pRightAcromion			pLeftAcromion			pRightArmLatEpicondyle			pRightArmMedEpicondyle			pLeftArmLatEpicondyle			pLeftArmMedEpicondyle			pRightUlnarStyloid			pRightRadialStyloid			pRightOlecranon			pLeftUlnarStyloid			pLeftRadialStyloid			pLeftOlecranon			pRightTopOfHand			pRightPinky			pRightBallHand			pLeftTopOfHand			pLeftPinky			pLeftBallHand			pRightGreaterTrochanter			pRightKneeLatEpicondyle			pRightKneeMedEpicondyle			pRightPatella			pLeftGreaterTrochanter			pLeftKneeLatEpicondyle			pLeftKneeMedEpicondyle			pLeftPatella			pRightTibialTub			pRightLatMalleolus			pRightMedMalleolus			pLeftTibialTub			pLeftLatMalleolus			pLeftMedMalleolus			pRightHeelFoot			pRightFirstMetatarsal			pRightFifthMetatarsal			pRightPivotFoot			pRightHeelCenter			pRightToe			pLeftHeelFoot			pLeftFirstMetatarsal			pLeftFifthMetatarsal			pLeftPivotFoot			pLeftHeelCenter			pLeftToe			
		X1	Y1	Z1	X2	Y2	Z2	X3	Y3	Z3	X4	Y4	Z4	X5	Y5	Z5	X6	Y6	Z6	X7	Y7	Z7	X8	Y8	Z8	X9	Y9	Z9	X10	Y10	Z10	X11	Y11	Z11	X12	Y12	Z12	X13	Y13	Z13	X14	Y14	Z14	X15	Y15	Z15	X16	Y16	Z16	X17	Y17	Z17	X18	Y18	Z18	X19	Y19	Z19	X20	Y20	Z20	X21	Y21	Z21	X22	Y22	Z22	X23	Y23	Z23	X24	Y24	Z24	X25	Y25	Z25	X26	Y26	Z26	X27	Y27	Z27	X28	Y28	Z28	X29	Y29	Z29	X30	Y30	Z30	X31	Y31	Z31	X32	Y32	Z32	X33	Y33	Z33	X34	Y34	Z34	X35	Y35	Z35	X36	Y36	Z36	X37	Y37	Z37	X38	Y38	Z38	X39	Y39	Z39	X40	Y40	Z40	X41	Y41	Z41	X42	Y42	Z42	X43	Y43	Z43	X44	Y44	Z44	X45	Y45	Z45	X46	Y46	Z46	X47	Y47	Z47	X48	Y48	Z48	X49	Y49	Z49	X50	Y50	Z50	X51	Y51	Z51	X52	Y52	Z52	X53	Y53	Z53	X54	Y54	Z54	X55	Y55	Z55	X56	Y56	Z56	X57	Y57	Z57	X58	Y58	Z58	X59	Y59	Z59	X60	Y60	Z60	X61	Y61	Z61	X62	Y62	Z62	X63	Y63	Z63	X64	Y64	Z64	
819	13.633	0.0	1249.97763	7.653905517926474E-14	123.57150690667815	1330.02729	119.53287166978508	75.90051796735841	1316.73519	-160.42401344025922	99.2391144304176	1410.74527	94.25193170837505	60.09698533892797	1399.82941	-136.02179198874515	-64.29686044850615	1217.00727	71.86040906397858	-83.90007801749347	1211.51221	-43.29502211470853	-57.683412168845415	1294.97772	7.682700630377195	15.419957863552817	1381.1165	-8.589310470244639	98.4358099720697	1469.55726	-31.485664155819823	177.1051252466674	1547.30493	-54.5763752080774	438.95283360485956	1524.65638	-116.47548992994415	346.0175965615584	1651.41404	-104.02207755748918	264.1864810349869	1612.35456	-80.35596782542899	329.49814001601294	1466.43844	-84.3204595071783	399.9851269328846	1675.54775	-119.08060211964273	669.7826286754284	1656.24079	-177.07586289288164	584.9386519453151	1650.22592	-84.92386448013342	555.1837121085637	1644.65661	-226.6049969067251	564.8391900670333	1704.13692	-156.89295530215574	437.54500427740925	1614.43378	69.3791219935854	354.7369337743001	1609.45852	-293.6296926182839	459.17009580610323	1324.68075	51.08182474756003	421.2795673725019	1323.1956	-1.0623548798091391	382.80599521873705	1314.28469	-271.8505731608214	346.0321747099024	1310.05201	-218.99804765110136	530.904706124178	1076.58621	21.586495015499775	580.2556530676754	1097.97239	15.266707507726391	415.5300723436862	1317.40351	30.43074262796429	432.46958738758246	1058.54163	-265.6425380836415	481.29169696170015	1075.84364	-281.4423923987085	340.2003431931726	1307.82428	-239.34261916294392	721.8269502143631	1047.92279	119.81116795623252	643.6750740210144	1022.15542	72.20354822994489	589.5637359094897	1058.31885	26.471415104643974	562.3823861889274	996.53656	-426.3510461610443	511.01162673146496	986.21475	-347.0277607573198	483.0607385702714	1033.88811	-289.85302234545696	41.27099579409209	1229.48255	172.08135840567118	355.3642139109702	917.74928	134.34404631442482	355.8939290968429	919.30869	48.47589269895245	387.13826284763377	954.95232	89.40879919394365	-10.0931943257266	1231.33898	-178.26101461717562	282.8084873928888	906.1651	-253.69960897618589	303.0528968729753	896.06607	-170.8429347649246	326.424844249432	935.71961	-213.2550350927737	410.27581644536934	884.25911	91.36316079981759	318.1022977282813	482.89696	135.4676183302149	319.90448155047955	480.59498	69.96978438558891	311.4978869599295	845.34815	-222.30184666494483	-11.062777710078379	587.00607	-194.2549469333038	7.929056040712474	578.39219	-132.10008791857496	264.1524303677906	407.82256	103.11920966018658	429.1553285046365	376.7829	79.45500669105735	422.7795465065832	381.83241	158.51812504966878	448.15164123775804	375.29775	119.91890788082334	304.73779653362817	405.44632	106.48679341716917	538.4702445675539	357.32741	128.33429804495754	-85.9881838346287	551.9565	-143.1933767478503	36.29130438158712	434.62954	-145.13576306185593	15.936031204846614	440.86718	-221.71129571779747	41.71286762265789	422.08001	-187.79358605183833	-55.170295525266916	527.30299	-153.35360508164783	103.29960743678517	356.6591	-209.51428848243182	
820	13.65	0.0	1249.97763	7.653905517926474E-14	124.19007481859525	1329.58175	119.2040406184129	75.1089184832702	1317.25499	-160.53806291457312	99.80065943530474	1410.37398	94.318907229174	59.451231380525854	1400.27495	-135.79439332360394	-63.91101149010402	1216.71024	72.08317906397859	-84.08572301749348	1211.66073	-42.9734755425374	-57.67613268964435	1294.97772	8.115632202548325	15.37288391003785	1381.19076	-8.359255991043579	98.3244249720697	1469.63152	-31.292739676618755	176.92942920018237	1547.37919	-54.42058072887633	438.7227704654045	1524.80489	-116.5225688834591	345.7504084221033	1651.56256	-104.00485412477317	264.04791498850193	1612.50308	-80.26448439271294	329.396707629782	1466.58696	-84.29327346069326	399.7550724536835	1675.69627	-119.12767607315764	669.7057042011146	1655.8695	-176.34856579502446	584.550129852345	1650.37444	-84.54796447524627	555.3295626342499	1644.28532	-226.26355742752403	564.8663624532643	1703.9884	-156.7915192556707	437.37926084469325	1614.211	69.36917804007045	354.36831324861396	1609.23575	-293.5852831390828	459.01429266664815	1324.60649	50.90612370107498	421.02233184681575	1323.1956	-1.2108698798091424	382.2345012603349	1314.28469	-271.7517965886503	345.11195313284406	1309.97775	-219.18635712541524	530.3332035055219	1076.36344	21.685266587670935	579.6841504490193	1097.74962	15.365479079897494	415.3099668180001	1317.32925	30.21791658147924	431.66803528972525	1058.39311	-265.5908491252394	480.45301486384295	1075.76938	-281.3263923938212	339.4730460953154	1307.82428	-239.41954363725782	721.3297112559609	1047.70002	119.7813310956876	643.1778264023583	1021.93264	72.17370636939995	589.0293719510876	1058.09608	26.505880630330104	561.5808340910702	996.4623	-426.29935720264217	510.21006963360776	986.06624	-346.9760631386636	482.19487908618316	1033.81386	-289.8384497268008	41.27099579409209	1228.73997	172.08135840567118	341.87637527464466	903.93737	135.13136811683114	341.97315888834623	904.7542	49.270493980559834	374.8776284021355	939.43249	89.70422098657568	-9.687443800040512	1232.97265	-178.36973514286169	294.0309447258684	918.64037	-256.65229526268035	314.10961077323884	908.02154	-173.80556500493407	336.4101620983233	949.08597	-215.55007293677795	397.52522386041596	870.74424	92.06165498356776	313.45410722922094	467.45139	134.75612043784642	315.4220381443892	465.44643	69.26824410698941	321.3943721901647	857.60065	-225.3341219000672	-4.949333778301963	604.30808	-195.78432243236418	14.282507065458951	595.32292	-133.7481278968364	257.94092014732973	393.71362	101.84812095375825	422.15222746034146	359.18385	78.06987351031509	415.9421938950041	363.86208	157.14292716218745	441.1485365332089	356.95613	118.53376103982708	298.4891699734212	390.44629	105.2800120969718	531.0441609046026	336.98084	126.79069225044624	-80.13197176828436	570.07535	-144.87125358665662	40.82882016413413	451.41175	-146.460310937373	20.6392990803637	457.72365	-223.0258946397996	46.17613206545894	438.63945	-188.98950683438534	-49.581271598377654	545.05055	-155.01425848773815	107.11711426093004	372.47596	-210.4828242600917	
821	13.667	0.0	1249.97763	7.653905517926474E-14	124.95716639076636	1329.21046	118.61797904135462	74.16151085972689	1317.70054	-160.82780477511804	100.4464170539609	1410.07695	94.09152222428685	58.686809282668634	1400.64624	-135.80701541168685	-63.56228387144786	1216.56173	72.37026511046362	-84.40993406397851	1211.8835	-42.56044553765025	-57.604537163958256	1294.97772	8.585685114465408	15.427251003007914	1381.19076	-8.156382558327552	98.2872949720697	1469.63152	-31.228428630133724	176.86511815369732	1547.45345	-54.45771072887633	438.6584594189194	1524.95341	-116.55969888345912	345.62179498938724	1651.71107	-104.07910912477317	263.91930155578586	1612.57734	-80.33873939271295	329.29527158329694	1466.66122	-84.26610107446227	399.6264590209675	1675.84478	-119.20193107315764	669.7845742060018	1655.49821	-175.44557265068215	584.1516588058599	1650.52295	-84.00631237738908	555.604030252906	1643.91403	-225.84784928806894	564.9207295462344	1703.91414	-156.5886458229547	437.0749427052382	1614.06249	69.4507125192715	354.20256115564393	1608.7902	-293.59523209259777	458.9970642339322	1324.53223	50.638944221873935	421.1436658003307	1323.1956	-1.5695464519802769	381.6086452089628	1314.06191	-271.85590210944923	344.39459998850185	1309.75498	-219.42902503244514	530.0931964125518	1076.21493	21.80393106687198	579.5084630627882	1097.52685	15.521278559098572	415.2927383852841	1317.40351	29.950737102278193	430.96791923835303	1058.17034	-265.56633255306826	479.8443822451868	1075.54661	-281.1633097751651	338.7557016112272	1307.60151	-239.66220654428784	721.0525741629909	1047.55151	119.96430662137372	642.9006979696424	1021.78413	72.35668689508606	588.7893648581176	1057.87331	26.624545109531148	560.8807180396981	996.16527	-426.27484063047103	509.4728235822356	985.84347	-346.88723552000755	481.5219354210419	1033.51682	-289.71249710814465	41.639616319778185	1228.36868	172.03694892647013	328.00997215911804	890.86804	136.12884283115454	327.1765852422464	890.57101	50.24541131353945	361.99113424501104	924.3582	89.89552359815474	-9.521700367324485	1234.53206	-178.3597911893467	304.6991415331619	931.41267	-259.2390341580568	324.91636496676335	920.49681	-176.48379233302654	345.91545576127453	962.74936	-217.607764501872	384.12888231706046	857.82342	92.98753917220509	307.6602556787883	452.97116	134.84084569470733	309.6281865939567	451.11472	69.35296936385033	331.20665846688496	870.29869	-228.0720402697575	2.0770472513316633	620.71901	-197.55831136902776	21.44745048132358	611.36255	-135.61361392647004	250.30663410303467	380.79281	101.55623226199135	413.46180460656296	342.03036	77.08248743231718	407.4818255204267	346.33729	156.20261503770453	432.45812233968445	339.06005	117.54637996182917	290.66194578967105	376.41161	104.87674206545896	521.7106535667359	316.63427	125.43202117244833	-73.26139387810579	586.7833	-146.82094356980522	47.01651909591054	467.37713	-148.1182998691494	27.029866444856125	473.76328	-224.738242004292	52.36383099723534	454.60483	-190.64749576616174	-42.84925975468418	561.53573	-156.8724650381707	112.9633787135054	388.07005	-211.99497132643603	
822	13.683	0.0	1249.97763	7.653905517926474E-14	125.76138796293748	1328.83917	117.96760641781131	73.14979718969855	1317.99757	-161.15468529591698	101.23073705884806	1409.77992	93.77264012642962	57.92238218481142	1400.86901	-135.81962883951573	-63.08493782007569	1216.48747	72.73159749669462	-84.7069690639785	1212.03202	-42.04596582602404	-57.468635591787134	1295.05198	9.092876686636535	15.454423389238908	1381.19076	-8.05494651184252	98.2872949720697	1469.63152	-31.228428630133724	176.83794576746632	1547.45345	-54.55914677536135	438.6856404654045	1525.10192	-116.45825783697406	345.5574839429022	1651.78533	-104.11623912477317	263.8278094628158	1612.57734	-80.47731043919796	329.33239658329694	1466.73547	-84.33040346069326	399.5992779744825	1675.9933	-119.30337211964273	669.954941303859	1655.20118	-174.40401712010896	583.881809852345	1650.59721	-83.39040027953185	556.0071163042782	1643.69126	-225.3578948088679	565.0294450719205	1703.83989	-156.18288663701458	436.70632217955205	1613.83972	69.49512199847256	354.1382501091589	1608.34466	-293.63236209259776	459.10844923393216	1324.53223	50.44601974267288	421.4950492330468	1323.1956	-1.8811404103823903	381.1213465438216	1313.76488	-272.0514960629642	343.7143905044136	1309.5322	-219.73600764621418	529.9546340263208	1076.14067	21.895428159842037	579.4613804490192	1097.30408	15.751328038299658	415.4783833852841	1317.40351	29.629190530107078	430.3964252799509	1057.94756	-265.46755598089715	479.33719567301574	1075.24958	-281.027416863248	338.13979451337	1307.37873	-239.93206415805682	720.931245209476	1047.40299	120.32297453329075	642.7521829696424	1021.63561	72.61392242077216	588.6408498581175	1057.72479	26.881780635217247	560.2720904210419	995.86824	-426.111766672069	508.9656370100645	985.47218	-346.7513426080904	481.0147575091248	1033.21979	-289.5765991962276	42.4411684176354	1228.36868	171.985259968068	313.85647433685244	878.61554	137.47504016413416	311.78860741020645	877.05613	51.650590744376245	348.4960161294845	909.95223	90.24991382838994	-9.521700367324485	1236.01721	-178.3597911893467	315.0530749077393	944.55626	-261.578472821008	335.2059922948557	933.34337	-178.86036965623185	355.0050549450247	976.70979	-219.39099210856384	370.16103315504887	845.49666	94.01220359326757	300.6564356907526	439.30777	135.68467776105172	302.56005555943585	437.59985	70.15967143019469	340.86046712983614	883.51654	-230.3869673605376	10.080672765053492	636.16458	-199.53979740354853	29.552525701784468	626.58535	-137.62227600747582	241.0294357284572	369.06011	102.0307111986549	402.90837755707	325.54518	76.6486392760107	397.32420370335893	329.33231	155.82581210893605	421.9146479039605	321.68378	116.94679337280661	281.3303939823776	363.41654	105.14834390915244	510.5612159866696	296.43621	124.39683353694076	-65.31212179709999	602.15462	-149.00530669729605	54.95584222340139	482.67419	-150.1369109036702	35.07063061883201	489.1346	-226.78403408529783	60.34027546447214	469.90189	-192.73042284716755	-34.83567662719334	576.9813	-159.01969816566154	120.90270184099624	403.36711	-214.01358236095683	
